<svg width="40" height="40" viewBox="0 0 40 40" fill="none" xmlns="http://www.w3.org/2000/svg">
<circle cx="20" cy="20" r="19.5" stroke="#5A6B80" stroke-dasharray="2 3"/>
<path d="M16.9003 23.346V19.782H18.1603C18.7723 19.782 19.2403 19.686 19.5643 19.494C19.8883 19.29 20.0503 18.906 20.0503 18.342V17.766C20.0503 17.154 19.8763 16.722 19.5283 16.47C19.1923 16.218 18.6883 16.092 18.0163 16.092C17.5003 16.092 16.9963 16.146 16.5043 16.254C16.0243 16.362 15.5263 16.506 15.0103 16.686V14.724C15.4783 14.436 16.0303 14.196 16.6663 14.004C17.3023 13.8 18.0223 13.698 18.8263 13.698C19.6903 13.698 20.4103 13.854 20.9863 14.166C21.5623 14.466 21.9943 14.892 22.2823 15.444C22.5703 15.996 22.7143 16.626 22.7143 17.334V18.396C22.7143 19.512 22.4023 20.358 21.7783 20.934C21.1663 21.51 20.2063 21.798 18.8983 21.798V23.346H16.9003ZM17.1343 27.018C16.8823 27.018 16.7563 26.898 16.7563 26.658V24.822C16.7563 24.57 16.8823 24.444 17.1343 24.444H18.6643C18.9283 24.444 19.0603 24.57 19.0603 24.822V26.658C19.0603 26.802 19.0243 26.898 18.9523 26.946C18.8803 26.994 18.7843 27.018 18.6643 27.018H17.1343Z" fill="#404853"/>
</svg>
