<svg width="100" height="100" viewBox="0 0 100 100" fill="none" xmlns="http://www.w3.org/2000/svg">
<path fill-rule="evenodd" clip-rule="evenodd" d="M72.51 40.0381L72.5081 40.0421C76.4189 44.9529 78.7563 51.1728 78.7563 57.938C78.7563 64.8037 76.349 71.108 72.3327 76.0522L71.987 76.4778L71.8953 75.9369C71.8171 75.4767 71.7257 75.0122 71.6192 74.544C69.609 65.6997 63.0602 58.1159 52.2817 51.9752C45.003 47.8399 40.8367 42.8603 39.7429 37.2029C39.0364 33.5445 39.5616 29.8698 40.5766 26.7225C41.5913 23.5761 43.1008 20.9399 44.3831 19.3528L48.5768 14.2173C49.3121 13.3169 50.6882 13.3169 51.4235 14.2173L72.51 40.0381ZM79.1419 34.9081L51.0388 0.492806C50.5023 -0.164268 49.4977 -0.164269 48.9612 0.492806L20.8572 34.9066L20.7665 35.0222C15.5949 41.4489 12.5 49.6162 12.5 58.507C12.5 79.2134 29.289 96 50 96C70.7112 96 87.5 79.2134 87.5 58.507C87.5 49.6162 84.4052 41.4489 79.2337 35.0222L79.1419 34.9081ZM27.5816 39.9271L30.0965 36.8475L30.1725 37.4156C30.2326 37.866 30.3056 38.3184 30.3922 38.7728C32.0186 47.319 37.8288 54.4448 47.5429 59.9637C55.9868 64.7766 60.9032 70.3106 62.3196 76.3804C62.9106 78.9135 63.0162 81.4056 62.7601 83.5845L62.7444 83.7195L62.6225 83.779C58.8114 85.6436 54.5273 86.69 49.9991 86.69C34.1175 86.69 21.2422 73.8178 21.2422 57.938C21.2422 51.1201 23.6157 44.8555 27.5816 39.9271Z" fill="#3898EC"/>
</svg>
