<svg width="32" height="32" viewBox="0 0 32 32" fill="none" xmlns="http://www.w3.org/2000/svg">
<g clip-path="url(#clip0_532_77)">
<path d="M19.7311 32C18.8299 31.577 18.554 30.8781 18.5724 29.9033C18.6276 27.6044 18.6092 25.3054 18.5908 23.0248C18.5908 21.5535 17.9287 20.8914 16.4573 20.8914C13.8641 20.8914 11.2709 20.8914 8.67764 20.8914C7.50057 20.8914 6.94882 20.4132 6.7649 19.2913C6.30511 16.5142 5.80853 13.7186 5.33035 10.9415C5.23839 10.4449 5.14643 9.94832 5.12804 9.45175C5.10965 8.58733 5.71658 7.98041 6.58099 7.98041C8.45694 7.9988 9.90989 8.84482 10.8295 10.4449C11.3812 11.4013 11.7491 12.468 12.1353 13.5163C12.3008 13.9761 12.4479 14.2152 13.0181 14.2336C14.2503 14.3072 15.4642 14.5095 16.6964 14.6566C17.5792 14.767 18.0758 15.2819 18.2597 16.1279C19.0322 16.1279 19.7495 16.0728 20.4667 16.1463C21.4967 16.2567 22.2323 16.9004 22.6554 17.82C24.0163 20.8362 25.3589 23.8525 26.7015 26.8687C27.0878 27.7331 26.7383 28.6343 25.9659 28.947C25.1382 29.278 24.3842 28.9286 23.9796 28.0274C23.2255 26.3721 22.4898 24.7169 21.5702 23.0432C21.5519 23.2639 21.5335 23.4846 21.5335 23.7053C21.5335 25.7468 21.4783 27.7883 21.5519 29.8298C21.5886 30.8229 21.3495 31.5586 20.43 31.9816C20.1909 32 19.9518 32 19.7311 32Z" fill="#404853"/>
<path d="M7.86839 32C7.09594 31.2275 7.07755 31.0804 7.88678 30.308C9.92826 28.3584 11.9697 26.4273 14.0296 24.4778C14.2503 24.2755 14.5078 24.1467 14.7653 23.9812C14.7101 23.8892 14.6549 23.8157 14.5998 23.7237C14.3607 23.7053 14.14 23.6869 13.9009 23.6869C12.2272 23.6869 10.5536 23.6869 8.87994 23.6869C6.12118 23.6869 4.53949 22.326 4.0613 19.604C3.3992 15.8521 2.70032 12.0818 2.03821 8.32985C1.94625 7.85167 1.98304 7.37348 2.57157 7.24474C3.14172 7.13439 3.36242 7.50222 3.45438 8.01719C4.17165 11.9714 4.87054 15.944 5.60621 19.8982C5.86369 21.2408 6.7281 22.0869 8.10748 22.142C10.2777 22.234 12.4663 22.1788 14.6549 22.1972C15.2803 22.1972 15.9056 22.142 16.5125 22.2156C16.8252 22.2524 17.2298 22.4731 17.3585 22.7122C17.4505 22.8961 17.2298 23.3559 17.0275 23.5582C15.0596 25.4709 13.0549 27.3653 11.0502 29.2596C10.0938 30.1792 9.11903 31.0804 8.14427 31.9816C8.05231 32 7.96035 32 7.86839 32Z" fill="#5A6B80"/>
<path d="M6.41548 0.0167835C7.86843 -0.167134 9.72599 1.19385 9.74438 3.29051C9.74438 5.12968 8.23626 6.61941 6.43387 6.63781C4.64988 6.6562 3.10497 5.11129 3.10497 3.3089C3.12336 1.17546 4.98093 -0.167134 6.41548 0.0167835Z" fill="#404853"/>
<path fill-rule="evenodd" clip-rule="evenodd" d="M24 12C27.3137 12 30 9.31371 30 6C30 2.68629 27.3137 0 24 0C20.6863 0 18 2.68629 18 6C18 9.31371 20.6863 12 24 12ZM23.0268 6.33843L22.8009 7H23.5H27.5C27.7761 7 28 6.77614 28 6.5C28 6.22386 27.7761 6 27.5 6H24.1991L25.3732 2.56157C25.4624 2.30025 25.3229 2.01606 25.0616 1.92683C24.8002 1.83759 24.5161 1.9771 24.4268 2.23843L23.0268 6.33843Z" fill="#5A6B80"/>
</g>
<defs>
<clipPath id="clip0_532_77">
<rect width="32" height="32" fill="white"/>
</clipPath>
</defs>
</svg>
