<svg width="40" height="40" viewBox="0 0 40 40" fill="none" xmlns="http://www.w3.org/2000/svg">
<circle cx="20" cy="20" r="20" fill="#404853" fill-opacity="0.4"/>
<path d="M16.6785 12.6779C17.0727 16.5095 17.4343 20.3453 17.8597 24.1737C17.9876 25.3249 18.6673 27.4459 17.3302 25.3446C16.3271 23.7684 15.6068 21.9029 14.4792 20.4164C13.9482 19.7165 11.3134 20.7518 10.6303 20.9663C10.4254 21.0306 9.79137 21.2358 10.4877 21.2616C12.7453 21.3452 15.0659 21.0935 17.32 21.0172C21.9195 20.8616 26.6148 21.0173 31.1984 20.559C32.9759 20.3812 27.6289 20.3757 25.8426 20.3757C23.555 20.3757 21.2673 20.3838 18.9797 20.3757C17.8586 20.3717 16.5127 20.4914 15.4363 20.0702C12.7919 19.0355 11.3826 15.266 9.69349 13.187C9.68578 13.1775 8.31328 11.8394 8.3698 12.0161C8.78286 13.3069 10.0925 14.6446 10.9765 15.6002C13.9199 18.7823 17.8188 20.7555 21.566 22.8194C21.5758 22.8249 23.3615 23.7222 23.3377 23.8173C23.2917 24.0015 19.9932 23.8573 19.9368 23.858C15.9932 23.908 11.9487 24.5492 8.74654 27.0553C6.29079 28.9772 10.6696 26.2459 10.7932 26.1694C15.0522 23.5328 20.1321 20.8772 22.9101 16.5268C23.1362 16.1727 23.6534 15.0408 22.9304 15.9973C22.4816 16.5912 22.0596 17.2043 21.6271 17.8098" stroke="white" stroke-width="3" stroke-linecap="round"/>
</svg>
