<svg width="275" height="86" viewBox="0 0 275 86" fill="none" xmlns="http://www.w3.org/2000/svg">
<path fill-rule="evenodd" clip-rule="evenodd" d="M274.498 64.135C274.498 65.4677 273.391 66.5706 272.054 66.5706H267.213C265.875 66.5706 264.769 65.4677 264.769 64.135V42.398C264.769 34.4017 258.267 27.9219 250.244 27.9219C242.221 27.9219 235.72 34.4017 235.72 42.398V64.135C235.72 65.4677 234.613 66.5706 233.276 66.5706H228.434C227.097 66.5706 225.99 65.4677 225.99 64.135V42.398C225.99 29.0708 236.826 18.2712 250.198 18.2712C263.57 18.2712 274.406 29.0708 274.406 42.398V64.135H274.498Z" fill="#5A6B80"/>
<path fill-rule="evenodd" clip-rule="evenodd" d="M146.589 27.9221C138.566 27.9221 132.065 34.4018 132.065 42.3981C132.065 50.3944 138.566 56.8741 146.589 56.8741H158.716C160.053 56.8741 161.16 57.9771 161.16 59.3098V64.1351C161.16 65.4678 160.053 66.5708 158.716 66.5708H146.589C133.217 66.5708 122.382 55.7712 122.382 42.444C122.382 29.1169 133.217 18.3173 146.589 18.3173H158.716C160.053 18.3173 161.16 19.4203 161.16 20.753V25.5783C161.16 26.911 160.053 28.014 158.716 28.014H146.589V27.9221Z" fill="#5A6B80"/>
<path fill-rule="evenodd" clip-rule="evenodd" d="M112.698 20.7069C112.698 19.3742 111.592 18.2712 110.255 18.2712H105.413C104.076 18.2712 102.969 19.3742 102.969 20.7069V64.135C102.969 65.4677 104.076 66.5706 105.413 66.5706H110.255C111.592 66.5706 112.698 65.4677 112.698 64.135V20.7069Z" fill="#5A6B80"/>
<path d="M192.146 18.0415C178.589 18.0415 167.569 29.0249 167.569 42.5359C167.569 56.0468 178.589 67.0302 192.146 67.0302C205.702 67.0302 216.722 56.0468 216.722 42.5359C216.722 29.0249 205.702 18.0415 192.146 18.0415ZM193.713 57.8391C183.938 58.8042 175.777 50.67 176.745 40.9274C177.483 33.7124 183.293 27.876 190.532 27.1867C200.307 26.2216 208.469 34.3558 207.5 44.0984C206.809 51.3134 200.953 57.1038 193.713 57.8391Z" fill="#5A6B80"/>
<path d="M43.2694 7.96249C23.5263 7.96249 7.56627 23.9085 7.56627 43.5463C7.56627 63.1842 23.5657 79.1302 43.2694 79.1302C62.9732 79.1302 78.9726 63.1842 78.9726 43.5463C78.9726 23.9085 63.0126 7.96249 43.2694 7.96249ZM45.6733 66.9154C30.8167 68.3686 18.4033 56.036 19.8614 41.1898C20.9648 30.2319 29.8709 21.3555 40.8656 20.2558C55.7222 18.8026 68.1355 31.1352 66.6775 45.9814C65.5741 56.9394 56.668 65.8157 45.6733 66.9154Z" fill="url(#paint0_linear_1_2)"/>
<path d="M7.13275 85.6891C11.0721 85.6891 14.2655 82.5064 14.2655 78.5802C14.2655 74.6541 11.0721 71.4713 7.13275 71.4713C3.19344 71.4713 0 74.6541 0 78.5802C0 82.5064 3.19344 85.6891 7.13275 85.6891Z" fill="url(#paint1_linear_1_2)"/>
<path d="M78.5785 14.4822C82.5178 14.4822 85.7112 11.2994 85.7112 7.37329C85.7112 3.44714 82.5178 0.264374 78.5785 0.264374C74.6392 0.264374 71.4457 3.44714 71.4457 7.37329C71.4457 11.2994 74.6392 14.4822 78.5785 14.4822Z" fill="url(#paint2_linear_1_2)"/>
<defs>
<linearGradient id="paint0_linear_1_2" x1="7.55957" y1="43.5805" x2="78.9983" y2="43.5805" gradientUnits="userSpaceOnUse">
<stop stop-color="#19B7CB"/>
<stop offset="1" stop-color="#55C0D3"/>
</linearGradient>
<linearGradient id="paint1_linear_1_2" x1="0" y1="78.5825" x2="14.2436" y2="78.5825" gradientUnits="userSpaceOnUse">
<stop stop-color="#19B7CB"/>
<stop offset="1" stop-color="#55C0D3"/>
</linearGradient>
<linearGradient id="paint2_linear_1_2" x1="71.459" y1="7.36237" x2="85.7026" y2="7.36237" gradientUnits="userSpaceOnUse">
<stop stop-color="#19B7CB"/>
<stop offset="1" stop-color="#55C0D3"/>
</linearGradient>
</defs>
</svg>
