<svg width="256" height="256" viewBox="0 0 256 256" fill="none" xmlns="http://www.w3.org/2000/svg">
<circle cx="128" cy="128" r="128" fill="url(#paint0_linear_1_78)"/>
<path d="M128.944 60.2812C90.7734 60.2812 59.9169 91.1106 59.9169 129.078C59.9169 167.045 90.8496 197.874 128.944 197.874C167.039 197.874 197.971 167.045 197.971 129.078C197.971 91.1106 167.115 60.2812 128.944 60.2812ZM133.592 174.259C104.868 177.068 80.8689 153.225 83.6879 124.522C85.8212 103.336 103.04 86.1749 124.297 84.0487C153.02 81.2392 177.019 105.083 174.2 133.786C172.067 154.972 154.848 172.133 133.592 174.259Z" fill="white"/>
<path d="M59.0789 210.555C66.695 210.555 72.8691 204.402 72.8691 196.811C72.8691 189.221 66.695 183.067 59.0789 183.067C51.4628 183.067 45.2887 189.221 45.2887 196.811C45.2887 204.402 51.4628 210.555 59.0789 210.555Z" fill="white"/>
<path d="M197.21 72.8863C204.826 72.8863 211 66.7329 211 59.1422C211 51.5515 204.826 45.3981 197.21 45.3981C189.594 45.3981 183.42 51.5515 183.42 59.1422C183.42 66.7329 189.594 72.8863 197.21 72.8863Z" fill="white"/>
<defs>
<linearGradient id="paint0_linear_1_78" x1="27" y1="55" x2="216.5" y2="224.5" gradientUnits="userSpaceOnUse">
<stop stop-color="#19B7CB"/>
<stop offset="1" stop-color="#55C0D3"/>
</linearGradient>
</defs>
</svg>
